<?xml version="1.0" encoding="UTF-8" standalone="no"?>
<!-- Created with Inkscape (http://www.inkscape.org/) -->

<svg
   width="66.145828mm"
   height="13.796765mm"
   viewBox="0 0 66.145829 13.796765"
   version="1.1"
   id="svg1"
   xml:space="preserve"
   inkscape:version="1.4.3 (0d15f75, 2025-12-25)"
   sodipodi:docname="fixera_logo.svg"
   inkscape:export-filename="proper_log.svg"
   inkscape:export-xdpi="96"
   inkscape:export-ydpi="96"
   xmlns:inkscape="http://www.inkscape.org/namespaces/inkscape"
   xmlns:sodipodi="http://sodipodi.sourceforge.net/DTD/sodipodi-0.dtd"
   xmlns="http://www.w3.org/2000/svg"
   xmlns:svg="http://www.w3.org/2000/svg"><sodipodi:namedview
     id="namedview1"
     pagecolor="#ffffff"
     bordercolor="#000000"
     borderopacity="0.25"
     inkscape:showpageshadow="2"
     inkscape:pageopacity="0.0"
     inkscape:pagecheckerboard="0"
     inkscape:deskcolor="#d1d1d1"
     inkscape:document-units="mm"
     inkscape:zoom="1.4378367"
     inkscape:cx="106.7576"
     inkscape:cy="212.47197"
     inkscape:window-width="1920"
     inkscape:window-height="1009"
     inkscape:window-x="-8"
     inkscape:window-y="-8"
     inkscape:window-maximized="1"
     inkscape:current-layer="g1"><inkscape:page
       x="0"
       y="-8.5885537e-30"
       width="66.145828"
       height="13.796765"
       id="page2"
       margin="0"
       bleed="0" /></sodipodi:namedview><defs
     id="defs1"><rect
       x="334.41391"
       y="1.9671407"
       width="533.09515"
       height="348.1839"
       id="rect2" /></defs><g
     inkscape:label="Layer 1"
     inkscape:groupmode="layer"
     id="layer1"
     transform="translate(-31.715874,-215.24365)"><g
       id="g1"
       transform="matrix(0.06020649,0,0,0.06020649,23.290398,209.44137)"><g
         id="g2"
         inkscape:export-filename="C:\Users\ij3m\OneDrive\Desktop\logo.png"
         inkscape:export-xdpi="96"
         inkscape:export-ydpi="96"
         transform="matrix(0.69620984,0,0,0.69620984,82.23004,74.094324)"><path
           d="m 204.0471,260.94147 h 11.74059 c 13.72181,0 25.60916,-9.53923 28.61768,-22.89415 l -14.0887,4.69624 c -13.28154,4.40272 -27.59038,4.40272 -40.87192,0 l -14.08871,-4.69624 c 3.0819,13.35492 14.96925,22.89415 28.69106,22.89415 z"
           id="path1"
           style="fill:#ffffff;fill-opacity:1;stroke-width:0.733787" /><path
           d="m 226.64773,231.59 12.62114,-4.18259 v -20.91292 c -2.86177,1.83447 -5.8703,3.52218 -9.02558,4.91637 l -8.43855,3.74232 c -7.558,3.37541 -16.21669,3.37541 -23.84807,0 l -8.43855,-3.74232 c -3.15528,-1.39419 -6.1638,-3.00852 -9.02557,-4.91637 v 20.91292 l 12.62113,4.18259 c 10.93342,3.59555 22.67401,3.59555 33.53405,0 z"
           id="path2"
           style="fill:#ffffff;fill-opacity:1;stroke-width:0.733787" /><path
           d="m 256.87975,125.33768 c -1.90785,0.36689 -3.88907,0.58703 -5.87029,0.58703 h -82.18412 c -1.98123,0 -3.96245,-0.22014 -5.8703,-0.58703 v 27.00335 c 0,20.83954 12.32762,39.77124 31.40608,48.28317 l 8.43854,3.74231 c 4.54948,2.0546 9.75937,2.0546 14.30885,0 l 8.43854,-3.74231 c 19.07846,-8.51193 31.3327,-27.37025 31.40608,-48.28317 v -27.00335 z m -54.66711,28.69106 2.12798,-6.45733 11.15356,3.74232 -2.12799,6.45732 c -0.44027,1.3942 0.29352,2.86177 1.61434,3.30204 0.29351,0.0734 0.51365,0.14676 0.80716,0.14676 v 11.74059 c -7.9249,0 -14.30884,-6.38395 -14.30884,-14.30885 0,-1.61433 0.22013,-3.15528 0.73379,-4.62285 z m -15.77642,-4.62286 v -11.74059 h 11.74059 v 11.74059 z m 35.22176,41.09206 h -23.48117 v -11.74059 h 23.48117 z m 11.74059,-41.09206 h -11.74059 v -11.74059 h 11.74059 z"
           id="path3"
           style="fill:#ffffff;fill-opacity:1;stroke-width:0.733787" /><polygon
           points="374.6,408 352,408 352,440 369.2,440 "
           id="polygon3"
           transform="matrix(0.73378676,0,0,0.73378676,22.067986,8.5188238)"
           style="fill:#ffffff;fill-opacity:1" /><path
           d="m 272.28927,265.12405 -2.49487,17.24399 c -0.51365,3.66894 0.73378,7.33787 3.30204,9.9795 l 3.81569,3.81569 h 25.16888 l 13.50168,-9.02557 V 255.07118 H 283.8831 c -5.79691,0 -10.78666,4.32934 -11.59383,10.05287 z m 8.07166,1.68771 h 11.74058 v 11.74059 h -11.74058 z"
           id="path4"
           style="fill:#ffffff;fill-opacity:1;stroke-width:0.733787" /><path
           d="M 267.59304,102.44353 H 152.24176 c 2.49487,7.04435 9.17233,11.74059 16.58358,11.74059 h 82.18412 c 7.48462,0 14.0887,-4.69624 16.58358,-11.74059 z"
           id="path5"
           style="fill:#ffffff;fill-opacity:1;stroke-width:0.733787" /><path
           d="m 260.62206,263.50972 c 0.95392,-6.75084 4.84299,-12.69451 10.49315,-16.36344 l -15.55628,-5.57678 c -4.54947,18.27129 -20.91292,31.11256 -39.77124,31.11256 H 204.0471 c -18.85832,0 -35.22176,-12.84127 -39.84462,-31.11256 l -21.86684,7.77814 17.24398,43.07328 c 0.88055,2.20136 3.08191,3.66894 5.43003,3.66894 h 89.74212 c 2.0546,0 4.03582,-1.10069 5.06313,-2.86177 -1.68771,-3.96245 -2.27474,-8.29179 -1.68771,-12.54776 z"
           id="path6"
           style="fill:#ffffff;fill-opacity:1;stroke-width:0.733787" /><path
           d="M 260.54868,343.12559 H 151.21446 V 331.385 h 117.40588 v -26.92998 l -1.54095,-1.54095 c -3.30205,3.22866 -7.70477,4.98975 -12.25424,4.98975 h -89.8155 c -7.19111,0 -13.72182,-4.40272 -16.36345,-11.08018 l -17.39074,-43.51355 -4.32935,1.54095 c -3.22866,1.17406 -6.31056,2.64163 -9.24571,4.40272 l 14.96925,44.98113 c 0.58703,1.76109 0.88054,3.66893 0.88054,5.57678 v 50.9248 h 124.30348 c -0.66041,-1.90785 -1.0273,-3.88907 -1.0273,-5.8703 v -1.0273 c 0.0734,-3.88907 1.32082,-7.63138 3.74231,-10.71328 z"
           id="path7"
           style="fill:#ffffff;fill-opacity:1;stroke-width:0.733787" /><path
           d="m 107.84766,266.81176 c -8.071656,7.85152 -13.354921,18.05116 -15.189388,29.13134 l -9.685985,57.96915 c -0.513651,3.22866 1.614331,6.23719 4.842993,6.75084 0.293514,0.0734 0.660408,0.0734 0.953922,0.0734 h 33.093788 v -50.9248 c 0,-0.66041 -0.0734,-1.24744 -0.29352,-1.83447 z"
           id="path8"
           style="fill:#ffffff;fill-opacity:1;stroke-width:0.733787" /><path
           d="m 295.55031,343.12559 h -18.63818 l -6.60408,6.60408 c -1.10068,1.10068 -1.68771,2.56825 -1.68771,4.18258 v 1.0273 c 0,3.22866 2.64163,5.8703 5.87029,5.8703 h 23.48118 c 3.22866,0 5.87029,-2.64164 5.87029,-5.8703 v -1.0273 c 0,-1.54095 -0.58703,-3.0819 -1.68771,-4.18258 z"
           id="path9"
           style="fill:#ffffff;fill-opacity:1;stroke-width:0.733787" /><path
           d="m 327.17652,295.9431 c -0.14676,-0.66041 -0.22014,-1.32082 -0.36689,-1.98123 l -2.20136,1.32082 -15.40952,10.27301 -4.98975,29.71837 6.1638,6.16381 c 3.30204,3.30204 5.13651,7.77814 5.13651,12.47437 v 1.0273 c 0,1.98123 -0.36689,3.96245 -1.0273,5.8703 h 16.5102 c 3.22866,0 5.8703,-2.64164 5.8703,-5.8703 0,-0.29351 0,-0.6604 -0.0734,-0.95392 z"
           id="path10"
           style="fill:#ffffff;fill-opacity:1;stroke-width:0.733787" /><path
           d="m 144.24348,148.15844 6.97098,3.4488 V 131.795 h -3.08191 c -4.76961,0 -8.65868,3.88907 -8.65868,8.65868 0,3.22866 1.83446,6.23719 4.76961,7.70476 z"
           id="path11"
           style="fill:#ffffff;fill-opacity:1;stroke-width:0.733787" /><path
           d="M 233.39857,50.051154 V 78.962353 H 221.65798 V 43.740588 C 221.65798,37.283265 216.37472,32 209.9174,32 c -6.45733,0 -11.74059,5.283265 -11.74059,11.740588 V 78.962353 H 186.43622 V 50.051154 c -20.17914,2.935147 -35.22176,20.252515 -35.22176,40.651787 h 117.40588 c 0,-20.399272 -15.04263,-37.71664 -35.22177,-40.651787 z"
           id="path12"
           style="fill:#ffffff;fill-opacity:1;stroke-width:0.733787" /><path
           d="m 268.62034,151.68062 6.97097,-3.4488 c 4.25596,-2.12798 6.01705,-7.33786 3.88907,-11.59383 -1.46757,-2.93514 -4.4761,-4.76961 -7.70476,-4.76961 h -3.15528 z"
           id="path13"
           style="fill:#ffffff;fill-opacity:1;stroke-width:0.733787" /><polygon
           points="437.2,342 416,337.8 416,369.9 435.8,358 480,358 480,342 "
           id="polygon13"
           transform="matrix(0.73378676,0,0,0.73378676,22.067986,8.5188238)"
           style="fill:#ffffff;fill-opacity:1" /></g><text
         xml:space="preserve"
         transform="translate(82.895899,32.000002)"
         id="text2"
         style="font-weight:bold;font-size:37.3333px;line-height:1;font-family:Bahnschrift;-inkscape-font-specification:'Bahnschrift Bold';writing-mode:lr-tb;direction:ltr;white-space:pre;shape-inside:url(#rect2);fill:#ffffff;fill-opacity:1;stroke:#070000;stroke-width:0.05;stroke-opacity:0.4" /><text
         xml:space="preserve"
         style="font-weight:bold;font-size:138.681px;line-height:0.9;font-family:Bahnschrift;-inkscape-font-specification:'Bahnschrift Bold';writing-mode:lr-tb;direction:ltr;fill:#ffffff;fill-opacity:1;stroke:#070000;stroke-width:0.185734;stroke-opacity:0.4"
         x="344.52179"
         y="197.52293"
         id="text3"><tspan
           sodipodi:role="line"
           id="tspan3"
           x="344.52179"
           y="197.52293"
           style="font-style:normal;font-variant:normal;font-weight:900;font-stretch:normal;line-height:0.9;font-family:Arial;-inkscape-font-specification:'Arial Heavy';stroke-width:0.185734">PROPER</tspan><tspan
           sodipodi:role="line"
           x="344.52179"
           y="325.43762"
           id="tspan4"
           style="font-style:normal;font-variant:normal;font-weight:900;font-stretch:normal;line-height:0.9;font-family:Arial;-inkscape-font-specification:'Arial Heavy';stroke-width:0.185734">HANDYMAN</tspan></text></g></g></svg>
